<?xml version="1.0" encoding="UTF-8" standalone="no"?>
<svg width="59px" height="59px" viewBox="0 0 59 59" version="1.1" color="" xmlns="http://www.w3.org/2000/svg" xmlns:xlink="http://www.w3.org/1999/xlink">
    <!-- Generator: Sketch 41.2 (35397) - http://www.bohemiancoding.com/sketch -->
    <title>Money</title>
    <desc>Created with Sketch.</desc>
    <defs></defs>
    <g id="Page-1" stroke="none" stroke-width="1" fill={color} fill-rule="evenodd">
        <g id="Money" fill="">
            <path d="M29.2,3.5 C43.5,3.5 55.2,15.2 55.2,29.5 C55.2,43.8 43.5,55.5 29.2,55.5 C14.9,55.5 3.2,43.8 3.2,29.5 C3.2,15.2 14.9,3.5 29.2,3.5 L29.2,3.5 Z M29.2,0.5 C13.2,0.5 0.2,13.5 0.2,29.5 C0.2,45.5 13.2,58.5 29.2,58.5 C45.2,58.5 58.2,45.5 58.2,29.5 C58.2,13.5 45.2,0.5 29.2,0.5 L29.2,0.5 Z" id="Shape"></path>
            <g id="Group" transform="translate(17.000000, 11.000000)">
                <path d="M13.2,32 C6,32 0.5,28 0.5,24.5 L3.5,24.5 C3.5,25.8 7.3,29 13.2,29 C18,29 22.9,26.7 22.9,22.9 C22.9,19.7 18.7,19.5 18.5,19.5 L8.2,19.5 C3.8,19.5 1.3,17.2 1.3,13.1 C1.3,10.3 3.8,5 13.1,5 C22.1,5 24,10.2 24.1,10.4 L21.3,11.4 C21.2,11.3 19.9,8 13.2,8 C6.2,8 4.4,11.3 4.4,13.1 C4.4,14.8 4.9,16.5 8.3,16.5 L18.7,16.5 C21.3,16.6 26,18.1 26,22.9 C25.9,27.3 21.4,32 13.2,32 Z" id="Shape"></path>
                <rect id="Rectangle-path" x="11.7" y="30.5" width="3" height="5.6"></rect>
                <rect id="Rectangle-path" x="11.7" y="0.9" width="3" height="5.6"></rect>
            </g>
        </g>
    </g>
</svg>